<?xml version="1.0" encoding="us-ascii" standalone="no"?><svg xmlns="http://www.w3.org/2000/svg" xmlns:xlink="http://www.w3.org/1999/xlink" contentStyleType="text/css" height="708px" preserveAspectRatio="none" style="width:1016px;height:708px;background:#FFFFFF;" version="1.1" viewBox="0 0 1016 708" width="1016px" zoomAndPan="magnify"><defs/><g><text fill="#000000" font-family="sans-serif" font-size="14" font-weight="bold" lengthAdjust="spacing" textLength="690" x="159" y="40.6357">Delegate the authorization to connect to a Service published on behalf of another Peer</text><rect fill="#DDDDDD" height="639.8203" style="stroke:none;stroke-width:0.5;" width="82" x="51" y="55.9375"/><text fill="#000000" font-family="sans-serif" font-size="13" font-weight="bold" lengthAdjust="spacing" textLength="73" x="55.5" y="68.0044">Delegator</text><rect fill="#DDDDDD" height="639.8203" style="stroke:none;stroke-width:0.5;" width="82" x="291" y="55.9375"/><text fill="#000000" font-family="sans-serif" font-size="13" font-weight="bold" lengthAdjust="spacing" textLength="76" x="294" y="68.0044">Delegatee</text><rect fill="#DDDDDD" height="639.8203" style="stroke:none;stroke-width:0.5;" width="126" x="475" y="55.9375"/><text fill="#000000" font-family="sans-serif" font-size="13" font-weight="bold" lengthAdjust="spacing" textLength="120" x="478" y="68.0044">Service Provider</text><rect fill="#DDDDDD" height="639.8203" style="stroke:none;stroke-width:0.5;" width="224" x="703" y="55.9375"/><text fill="#000000" font-family="sans-serif" font-size="13" font-weight="bold" lengthAdjust="spacing" textLength="218" x="706" y="68.0044">Delegator Service Publication</text><line style="stroke:#181818;stroke-width:0.5;stroke-dasharray:5.0,5.0;" x1="92" x2="92" y1="106.3672" y2="701.7578"/><line style="stroke:#181818;stroke-width:0.5;stroke-dasharray:5.0,5.0;" x1="332" x2="332" y1="106.3672" y2="701.7578"/><line style="stroke:#181818;stroke-width:0.5;stroke-dasharray:5.0,5.0;" x1="538" x2="538" y1="106.3672" y2="701.7578"/><line style="stroke:#181818;stroke-width:0.5;stroke-dasharray:5.0,5.0;" x1="815" x2="815" y1="106.3672" y2="701.7578"/><rect fill="#E2E2F0" height="30.2969" rx="2.5" ry="2.5" style="stroke:#181818;stroke-width:0.5;" width="74" x="55" y="75.0703"/><text fill="#000000" font-family="sans-serif" font-size="14" lengthAdjust="spacing" textLength="60" x="62" y="95.0654">Manager</text><rect fill="#E2E2F0" height="30.2969" rx="2.5" ry="2.5" style="stroke:#181818;stroke-width:0.5;" width="74" x="295" y="75.0703"/><text fill="#000000" font-family="sans-serif" font-size="14" lengthAdjust="spacing" textLength="60" x="302" y="95.0654">Manager</text><rect fill="#E2E2F0" height="30.2969" rx="2.5" ry="2.5" style="stroke:#181818;stroke-width:0.5;" width="74" x="501" y="75.0703"/><text fill="#000000" font-family="sans-serif" font-size="14" lengthAdjust="spacing" textLength="60" x="508" y="95.0654">Manager</text><rect fill="#E2E2F0" height="30.2969" rx="2.5" ry="2.5" style="stroke:#181818;stroke-width:0.5;" width="74" x="778" y="75.0703"/><text fill="#000000" font-family="sans-serif" font-size="14" lengthAdjust="spacing" textLength="60" x="785" y="95.0654">Manager</text><line style="stroke:#181818;stroke-width:1.0;" x1="92" x2="134" y1="152.6328" y2="152.6328"/><line style="stroke:#181818;stroke-width:1.0;" x1="134" x2="134" y1="152.6328" y2="165.6328"/><line style="stroke:#181818;stroke-width:1.0;" x1="93" x2="134" y1="165.6328" y2="165.6328"/><polygon fill="#181818" points="103,161.6328,93,165.6328,103,169.6328,99,165.6328" style="stroke:#181818;stroke-width:1.0;"/><text fill="#000000" font-family="sans-serif" font-size="13" font-weight="bold" lengthAdjust="spacing" textLength="9" x="99" y="140.0005">1</text><text fill="#000000" font-family="sans-serif" font-size="13" lengthAdjust="spacing" textLength="143" x="112" y="132.4341">Create Contract with a</text><text fill="#000000" font-family="sans-serif" font-size="13" lengthAdjust="spacing" text-decoration="underline" textLength="213" x="112" y="147.5669">DelegateServiceConnectionGrant</text><line style="stroke:#181818;stroke-width:1.0;" x1="92" x2="134" y1="194.7656" y2="194.7656"/><line style="stroke:#181818;stroke-width:1.0;" x1="134" x2="134" y1="194.7656" y2="207.7656"/><line style="stroke:#181818;stroke-width:1.0;" x1="93" x2="134" y1="207.7656" y2="207.7656"/><polygon fill="#181818" points="103,203.7656,93,207.7656,103,211.7656,99,207.7656" style="stroke:#181818;stroke-width:1.0;"/><text fill="#000000" font-family="sans-serif" font-size="13" font-weight="bold" lengthAdjust="spacing" textLength="9" x="99" y="189.6997">2</text><text fill="#000000" font-family="sans-serif" font-size="13" lengthAdjust="spacing" textLength="87" x="112" y="189.6997">Sign Contract</text><polygon fill="#181818" points="320,232.8984,330,236.8984,320,240.8984,324,236.8984" style="stroke:#181818;stroke-width:1.0;"/><line style="stroke:#181818;stroke-width:1.0;" x1="92" x2="326" y1="236.8984" y2="236.8984"/><text fill="#000000" font-family="sans-serif" font-size="13" font-weight="bold" lengthAdjust="spacing" textLength="9" x="99" y="231.8325">3</text><text fill="#000000" font-family="sans-serif" font-size="13" lengthAdjust="spacing" textLength="105" x="112" y="231.8325">Submit Contract</text><polygon fill="#181818" points="526,262.0313,536,266.0313,526,270.0313,530,266.0313" style="stroke:#181818;stroke-width:1.0;"/><line style="stroke:#181818;stroke-width:1.0;" x1="92" x2="532" y1="266.0313" y2="266.0313"/><text fill="#000000" font-family="sans-serif" font-size="13" font-weight="bold" lengthAdjust="spacing" textLength="9" x="99" y="260.9653">4</text><text fill="#000000" font-family="sans-serif" font-size="13" lengthAdjust="spacing" textLength="105" x="112" y="260.9653">Submit Contract</text><polygon fill="#181818" points="803,291.1641,813,295.1641,803,299.1641,807,295.1641" style="stroke:#181818;stroke-width:1.0;"/><line style="stroke:#181818;stroke-width:1.0;" x1="92" x2="809" y1="295.1641" y2="295.1641"/><text fill="#000000" font-family="sans-serif" font-size="13" font-weight="bold" lengthAdjust="spacing" textLength="9" x="99" y="290.0981">5</text><text fill="#000000" font-family="sans-serif" font-size="13" lengthAdjust="spacing" textLength="105" x="112" y="290.0981">Submit Contract</text><line style="stroke:#181818;stroke-width:1.0;" x1="332" x2="374" y1="324.2969" y2="324.2969"/><line style="stroke:#181818;stroke-width:1.0;" x1="374" x2="374" y1="324.2969" y2="337.2969"/><line style="stroke:#181818;stroke-width:1.0;" x1="333" x2="374" y1="337.2969" y2="337.2969"/><polygon fill="#181818" points="343,333.2969,333,337.2969,343,341.2969,339,337.2969" style="stroke:#181818;stroke-width:1.0;"/><text fill="#000000" font-family="sans-serif" font-size="13" font-weight="bold" lengthAdjust="spacing" textLength="9" x="339" y="319.231">6</text><text fill="#000000" font-family="sans-serif" font-size="13" lengthAdjust="spacing" textLength="87" x="352" y="319.231">Sign Contract</text><polygon fill="#181818" points="103,362.4297,93,366.4297,103,370.4297,99,366.4297" style="stroke:#181818;stroke-width:1.0;"/><line style="stroke:#181818;stroke-width:1.0;" x1="97" x2="331" y1="366.4297" y2="366.4297"/><text fill="#000000" font-family="sans-serif" font-size="13" font-weight="bold" lengthAdjust="spacing" textLength="9" x="109" y="361.3638">7</text><text fill="#000000" font-family="sans-serif" font-size="13" lengthAdjust="spacing" textLength="103" x="122" y="361.3638">Accept Contract</text><polygon fill="#181818" points="526,391.5625,536,395.5625,526,399.5625,530,395.5625" style="stroke:#181818;stroke-width:1.0;"/><line style="stroke:#181818;stroke-width:1.0;" x1="332" x2="532" y1="395.5625" y2="395.5625"/><text fill="#000000" font-family="sans-serif" font-size="13" font-weight="bold" lengthAdjust="spacing" textLength="9" x="339" y="390.4966">8</text><text fill="#000000" font-family="sans-serif" font-size="13" lengthAdjust="spacing" textLength="103" x="352" y="390.4966">Accept Contract</text><polygon fill="#181818" points="803,420.6953,813,424.6953,803,428.6953,807,424.6953" style="stroke:#181818;stroke-width:1.0;"/><line style="stroke:#181818;stroke-width:1.0;" x1="332" x2="809" y1="424.6953" y2="424.6953"/><text fill="#000000" font-family="sans-serif" font-size="13" font-weight="bold" lengthAdjust="spacing" textLength="9" x="339" y="419.6294">9</text><text fill="#000000" font-family="sans-serif" font-size="13" lengthAdjust="spacing" textLength="103" x="352" y="419.6294">Accept Contract</text><line style="stroke:#181818;stroke-width:1.0;" x1="538" x2="580" y1="453.8281" y2="453.8281"/><line style="stroke:#181818;stroke-width:1.0;" x1="580" x2="580" y1="453.8281" y2="466.8281"/><line style="stroke:#181818;stroke-width:1.0;" x1="539" x2="580" y1="466.8281" y2="466.8281"/><polygon fill="#181818" points="549,462.8281,539,466.8281,549,470.8281,545,466.8281" style="stroke:#181818;stroke-width:1.0;"/><text fill="#000000" font-family="sans-serif" font-size="13" font-weight="bold" lengthAdjust="spacing" textLength="18" x="545" y="448.7622">10</text><text fill="#000000" font-family="sans-serif" font-size="13" lengthAdjust="spacing" textLength="87" x="567" y="448.7622">Sign Contract</text><polygon fill="#181818" points="343,491.9609,333,495.9609,343,499.9609,339,495.9609" style="stroke:#181818;stroke-width:1.0;"/><line style="stroke:#181818;stroke-width:1.0;" x1="337" x2="537" y1="495.9609" y2="495.9609"/><text fill="#000000" font-family="sans-serif" font-size="13" font-weight="bold" lengthAdjust="spacing" textLength="18" x="349" y="490.895">11</text><text fill="#000000" font-family="sans-serif" font-size="13" lengthAdjust="spacing" textLength="103" x="371" y="490.895">Accept Contract</text><polygon fill="#181818" points="103,521.0938,93,525.0938,103,529.0938,99,525.0938" style="stroke:#181818;stroke-width:1.0;"/><line style="stroke:#181818;stroke-width:1.0;" x1="97" x2="537" y1="525.0938" y2="525.0938"/><text fill="#000000" font-family="sans-serif" font-size="13" font-weight="bold" lengthAdjust="spacing" textLength="18" x="109" y="520.0278">12</text><text fill="#000000" font-family="sans-serif" font-size="13" lengthAdjust="spacing" textLength="103" x="131" y="520.0278">Accept Contract</text><polygon fill="#181818" points="803,550.2266,813,554.2266,803,558.2266,807,554.2266" style="stroke:#181818;stroke-width:1.0;"/><line style="stroke:#181818;stroke-width:1.0;" x1="538" x2="809" y1="554.2266" y2="554.2266"/><text fill="#000000" font-family="sans-serif" font-size="13" font-weight="bold" lengthAdjust="spacing" textLength="18" x="545" y="549.1606">13</text><text fill="#000000" font-family="sans-serif" font-size="13" lengthAdjust="spacing" textLength="103" x="567" y="549.1606">Accept Contract</text><line style="stroke:#181818;stroke-width:1.0;" x1="815" x2="857" y1="583.3594" y2="583.3594"/><line style="stroke:#181818;stroke-width:1.0;" x1="857" x2="857" y1="583.3594" y2="596.3594"/><line style="stroke:#181818;stroke-width:1.0;" x1="816" x2="857" y1="596.3594" y2="596.3594"/><polygon fill="#181818" points="826,592.3594,816,596.3594,826,600.3594,822,596.3594" style="stroke:#181818;stroke-width:1.0;"/><text fill="#000000" font-family="sans-serif" font-size="13" font-weight="bold" lengthAdjust="spacing" textLength="18" x="822" y="578.2935">14</text><text fill="#000000" font-family="sans-serif" font-size="13" lengthAdjust="spacing" textLength="87" x="844" y="578.2935">Sign Contract</text><polygon fill="#181818" points="343,621.4922,333,625.4922,343,629.4922,339,625.4922" style="stroke:#181818;stroke-width:1.0;"/><line style="stroke:#181818;stroke-width:1.0;" x1="337" x2="814" y1="625.4922" y2="625.4922"/><text fill="#000000" font-family="sans-serif" font-size="13" font-weight="bold" lengthAdjust="spacing" textLength="18" x="349" y="620.4263">15</text><text fill="#000000" font-family="sans-serif" font-size="13" lengthAdjust="spacing" textLength="103" x="371" y="620.4263">Accept Contract</text><polygon fill="#181818" points="103,650.625,93,654.625,103,658.625,99,654.625" style="stroke:#181818;stroke-width:1.0;"/><line style="stroke:#181818;stroke-width:1.0;" x1="97" x2="814" y1="654.625" y2="654.625"/><text fill="#000000" font-family="sans-serif" font-size="13" font-weight="bold" lengthAdjust="spacing" textLength="18" x="109" y="649.5591">16</text><text fill="#000000" font-family="sans-serif" font-size="13" lengthAdjust="spacing" textLength="103" x="131" y="649.5591">Accept Contract</text><polygon fill="#181818" points="549,679.7578,539,683.7578,549,687.7578,545,683.7578" style="stroke:#181818;stroke-width:1.0;"/><line style="stroke:#181818;stroke-width:1.0;" x1="543" x2="814" y1="683.7578" y2="683.7578"/><text fill="#000000" font-family="sans-serif" font-size="13" font-weight="bold" lengthAdjust="spacing" textLength="18" x="555" y="678.6919">17</text><text fill="#000000" font-family="sans-serif" font-size="13" lengthAdjust="spacing" textLength="103" x="577" y="678.6919">Accept Contract</text><text fill="#888888" font-family="sans-serif" font-size="10" lengthAdjust="spacing" textLength="24" x="984" y="14.2822">Core</text><!--SRC=[fLHDQuD04BtxAmPxBlJIImw5na9F1I7NWgphH9VgZ5t7DFJNTsnYafh4ABqjo_kOUJExfXMcjahH1-Aan0MyO8cv4GGf44mh1NltRSGnWJ1O9a8htT702lt6MOIwJKlN59Y1Wb8iJBa6NeCXLWqFCQfwWIP3lu28FGP1obi8zqximm2WDbwSTRKXWV3DaCdHXs0Qg7Rd0pX0oa3vVqKGPuWW3aJwHcBF6wTbJj7QSthAvRBO7qAAkv3iRv2p-krzZlIZrH0BzqzdV8tSOpVFY4cyqTbzEIbqUk-K97qWUvDeDrtrUFLQM99CT5Yvd0xw4pYeUxPgqyh99DOWwbdSaHnlwI1UgNoasqkSBg5dQx6UvdJMxGpkQBTNT0P-exbVwlmw_oIpsTwtivl0dP7226VoDes-WYcw8qdDhE-VEZTtC6W-7EaVPYfeyBD5ihZaxPAzeYCkzGdUAP0QXI392Lh_hTXacQCS7X-2GjLXpInw_GC0]--></g></svg>