<?xml version="1.0" encoding="us-ascii" standalone="no"?><svg xmlns="http://www.w3.org/2000/svg" xmlns:xlink="http://www.w3.org/1999/xlink" contentStyleType="text/css" height="491px" preserveAspectRatio="none" style="width:681px;height:491px;background:#FFFFFF;" version="1.1" viewBox="0 0 681 491" width="681px" zoomAndPan="magnify"><defs/><g><text fill="#000000" font-family="sans-serif" font-size="14" font-weight="bold" lengthAdjust="spacing" textLength="399" x="137" y="40.6357">Delegate the authorization to connect to a Service</text><rect fill="#DDDDDD" height="422.8906" style="stroke:none;stroke-width:0.5;" width="82" x="51" y="55.9375"/><text fill="#000000" font-family="sans-serif" font-size="13" font-weight="bold" lengthAdjust="spacing" textLength="73" x="55.5" y="68.0044">Delegator</text><rect fill="#DDDDDD" height="422.8906" style="stroke:none;stroke-width:0.5;" width="82" x="291" y="55.9375"/><text fill="#000000" font-family="sans-serif" font-size="13" font-weight="bold" lengthAdjust="spacing" textLength="76" x="294" y="68.0044">Delegatee</text><rect fill="#DDDDDD" height="422.8906" style="stroke:none;stroke-width:0.5;" width="126" x="475" y="55.9375"/><text fill="#000000" font-family="sans-serif" font-size="13" font-weight="bold" lengthAdjust="spacing" textLength="120" x="478" y="68.0044">Service Provider</text><line style="stroke:#181818;stroke-width:0.5;stroke-dasharray:5.0,5.0;" x1="92" x2="92" y1="106.3672" y2="484.8281"/><line style="stroke:#181818;stroke-width:0.5;stroke-dasharray:5.0,5.0;" x1="332" x2="332" y1="106.3672" y2="484.8281"/><line style="stroke:#181818;stroke-width:0.5;stroke-dasharray:5.0,5.0;" x1="538" x2="538" y1="106.3672" y2="484.8281"/><rect fill="#E2E2F0" height="30.2969" rx="2.5" ry="2.5" style="stroke:#181818;stroke-width:0.5;" width="74" x="55" y="75.0703"/><text fill="#000000" font-family="sans-serif" font-size="14" lengthAdjust="spacing" textLength="60" x="62" y="95.0654">Manager</text><rect fill="#E2E2F0" height="30.2969" rx="2.5" ry="2.5" style="stroke:#181818;stroke-width:0.5;" width="74" x="295" y="75.0703"/><text fill="#000000" font-family="sans-serif" font-size="14" lengthAdjust="spacing" textLength="60" x="302" y="95.0654">Manager</text><rect fill="#E2E2F0" height="30.2969" rx="2.5" ry="2.5" style="stroke:#181818;stroke-width:0.5;" width="74" x="501" y="75.0703"/><text fill="#000000" font-family="sans-serif" font-size="14" lengthAdjust="spacing" textLength="60" x="508" y="95.0654">Manager</text><line style="stroke:#181818;stroke-width:1.0;" x1="92" x2="134" y1="152.6328" y2="152.6328"/><line style="stroke:#181818;stroke-width:1.0;" x1="134" x2="134" y1="152.6328" y2="165.6328"/><line style="stroke:#181818;stroke-width:1.0;" x1="93" x2="134" y1="165.6328" y2="165.6328"/><polygon fill="#181818" points="103,161.6328,93,165.6328,103,169.6328,99,165.6328" style="stroke:#181818;stroke-width:1.0;"/><text fill="#000000" font-family="sans-serif" font-size="13" font-weight="bold" lengthAdjust="spacing" textLength="9" x="99" y="140.0005">1</text><text fill="#000000" font-family="sans-serif" font-size="13" lengthAdjust="spacing" textLength="143" x="112" y="132.4341">Create Contract with a</text><text fill="#000000" font-family="sans-serif" font-size="13" lengthAdjust="spacing" text-decoration="underline" textLength="213" x="112" y="147.5669">DelegateServiceConnectionGrant</text><line style="stroke:#181818;stroke-width:1.0;" x1="92" x2="134" y1="194.7656" y2="194.7656"/><line style="stroke:#181818;stroke-width:1.0;" x1="134" x2="134" y1="194.7656" y2="207.7656"/><line style="stroke:#181818;stroke-width:1.0;" x1="93" x2="134" y1="207.7656" y2="207.7656"/><polygon fill="#181818" points="103,203.7656,93,207.7656,103,211.7656,99,207.7656" style="stroke:#181818;stroke-width:1.0;"/><text fill="#000000" font-family="sans-serif" font-size="13" font-weight="bold" lengthAdjust="spacing" textLength="9" x="99" y="189.6997">2</text><text fill="#000000" font-family="sans-serif" font-size="13" lengthAdjust="spacing" textLength="87" x="112" y="189.6997">Sign Contract</text><polygon fill="#181818" points="320,232.8984,330,236.8984,320,240.8984,324,236.8984" style="stroke:#181818;stroke-width:1.0;"/><line style="stroke:#181818;stroke-width:1.0;" x1="92" x2="326" y1="236.8984" y2="236.8984"/><text fill="#000000" font-family="sans-serif" font-size="13" font-weight="bold" lengthAdjust="spacing" textLength="9" x="99" y="231.8325">3</text><text fill="#000000" font-family="sans-serif" font-size="13" lengthAdjust="spacing" textLength="105" x="112" y="231.8325">Submit Contract</text><line style="stroke:#181818;stroke-width:1.0;" x1="332" x2="374" y1="266.0313" y2="266.0313"/><line style="stroke:#181818;stroke-width:1.0;" x1="374" x2="374" y1="266.0313" y2="279.0313"/><line style="stroke:#181818;stroke-width:1.0;" x1="333" x2="374" y1="279.0313" y2="279.0313"/><polygon fill="#181818" points="343,275.0313,333,279.0313,343,283.0313,339,279.0313" style="stroke:#181818;stroke-width:1.0;"/><text fill="#000000" font-family="sans-serif" font-size="13" font-weight="bold" lengthAdjust="spacing" textLength="9" x="339" y="260.9653">4</text><text fill="#000000" font-family="sans-serif" font-size="13" lengthAdjust="spacing" textLength="87" x="352" y="260.9653">Sign Contract</text><polygon fill="#181818" points="103,304.1641,93,308.1641,103,312.1641,99,308.1641" style="stroke:#181818;stroke-width:1.0;"/><line style="stroke:#181818;stroke-width:1.0;" x1="97" x2="331" y1="308.1641" y2="308.1641"/><text fill="#000000" font-family="sans-serif" font-size="13" font-weight="bold" lengthAdjust="spacing" textLength="9" x="109" y="303.0981">5</text><text fill="#000000" font-family="sans-serif" font-size="13" lengthAdjust="spacing" textLength="103" x="122" y="303.0981">Accept Contract</text><polygon fill="#181818" points="526,333.2969,536,337.2969,526,341.2969,530,337.2969" style="stroke:#181818;stroke-width:1.0;"/><line style="stroke:#181818;stroke-width:1.0;" x1="332" x2="532" y1="337.2969" y2="337.2969"/><text fill="#000000" font-family="sans-serif" font-size="13" font-weight="bold" lengthAdjust="spacing" textLength="9" x="339" y="332.231">6</text><text fill="#000000" font-family="sans-serif" font-size="13" lengthAdjust="spacing" textLength="103" x="352" y="332.231">Accept Contract</text><polygon fill="#181818" points="526,362.4297,536,366.4297,526,370.4297,530,366.4297" style="stroke:#181818;stroke-width:1.0;"/><line style="stroke:#181818;stroke-width:1.0;" x1="92" x2="532" y1="366.4297" y2="366.4297"/><text fill="#000000" font-family="sans-serif" font-size="13" font-weight="bold" lengthAdjust="spacing" textLength="9" x="99" y="361.3638">7</text><text fill="#000000" font-family="sans-serif" font-size="13" lengthAdjust="spacing" textLength="105" x="112" y="361.3638">Submit Contract</text><line style="stroke:#181818;stroke-width:1.0;" x1="538" x2="580" y1="395.5625" y2="395.5625"/><line style="stroke:#181818;stroke-width:1.0;" x1="580" x2="580" y1="395.5625" y2="408.5625"/><line style="stroke:#181818;stroke-width:1.0;" x1="539" x2="580" y1="408.5625" y2="408.5625"/><polygon fill="#181818" points="549,404.5625,539,408.5625,549,412.5625,545,408.5625" style="stroke:#181818;stroke-width:1.0;"/><text fill="#000000" font-family="sans-serif" font-size="13" font-weight="bold" lengthAdjust="spacing" textLength="9" x="545" y="390.4966">8</text><text fill="#000000" font-family="sans-serif" font-size="13" lengthAdjust="spacing" textLength="87" x="558" y="390.4966">Sign Contract</text><polygon fill="#181818" points="343,433.6953,333,437.6953,343,441.6953,339,437.6953" style="stroke:#181818;stroke-width:1.0;"/><line style="stroke:#181818;stroke-width:1.0;" x1="337" x2="537" y1="437.6953" y2="437.6953"/><text fill="#000000" font-family="sans-serif" font-size="13" font-weight="bold" lengthAdjust="spacing" textLength="9" x="349" y="432.6294">9</text><text fill="#000000" font-family="sans-serif" font-size="13" lengthAdjust="spacing" textLength="103" x="362" y="432.6294">Accept Contract</text><polygon fill="#181818" points="103,462.8281,93,466.8281,103,470.8281,99,466.8281" style="stroke:#181818;stroke-width:1.0;"/><line style="stroke:#181818;stroke-width:1.0;" x1="97" x2="537" y1="466.8281" y2="466.8281"/><text fill="#000000" font-family="sans-serif" font-size="13" font-weight="bold" lengthAdjust="spacing" textLength="18" x="109" y="461.7622">10</text><text fill="#000000" font-family="sans-serif" font-size="13" lengthAdjust="spacing" textLength="103" x="131" y="461.7622">Accept Contract</text><text fill="#888888" font-family="sans-serif" font-size="10" lengthAdjust="spacing" textLength="52" x="621" y="14.2822">Delegation</text><!--SRC=[bP91IyD048Nl-ok6U1QyUEb1i14y2OLUXJ3TZCbYCrCtarhyzKvf6jiqQUDjMTxtvitRnKQ5csf5qMdGDStWXTPKe19eIO2DbXB33seG1XNmmanUzqU49SLjyEHAmfnYXvhKkPNi86al92OEO8DHWmyRP8Na3HaBYWbW3TNXt8aTSGx6dviG_SE4g6VIHeL5b6smi5EyMkQ8_3ds0yFzqyKICqWZxMjCXJMYLVOTjBJItZdBZYdR2UcXLEljDLgOB9iuOHaAxlmdC6JFksnMLT0nYcY4kZ9fYDcdU_QUDjCczPg-nPxjTi6ERDZJNNKOsdQSF-bf9FTDTgWlLty6jZ-A5TJqrH1xcijkBj4SKbbR2NScvDean7gYjZ-wm3mFNC3ZWojj8do8g5t_0W00]--></g></svg>